{
  "accessors": [
    {
      "bufferView": 2,
      "componentType": 5126,
      "count": 3048,
      "max": [
        0.015158552676439285,
        0.025030039250850677,
        0.01991567574441433
      ],
      "min": [
        -0.015131871215999126,
        -0.025030000135302544,
        -0.01991567760705948
      ],
      "type": "VEC3"
    },
    {
      "bufferView": 2,
      "byteOffset": 36576,
      "componentType": 5126,
      "count": 3048,
      "max": [
        1.0,
        1.0,
        1.0
      ],
      "min": [
        -1.0,
        -1.0,
        -1.0
      ],
      "type": "VEC3"
    },
    {
      "bufferView": 1,
      "componentType": 5126,
      "count": 3048,
      "max": [
        1.7515000104904175,
        1.7515000104904175
      ],
      "min": [
        -0.7515000104904175,
        -0.7514998912811279
      ],
      "type": "VEC2"
    },
    {
      "bufferView": 0,
      "componentType": 5125,
      "count": 9303,
      "type": "SCALAR"
    },
    {
      "bufferView": 2,
      "byteOffset": 73152,
      "componentType": 5126,
      "count": 228,
      "max": [
        0.014419998973608017,
        0.023315245285630226,
        0.009518691338598728
      ],
      "min": [
        -0.014419999904930592,
        -0.021724753081798553,
        0.009126168675720692
      ],
      "type": "VEC3"
    },
    {
      "bufferView": 2,
      "byteOffset": 75888,
      "componentType": 5126,
      "count": 228,
      "max": [
        0.9984267354011536,
        0.998746931552887,
        0.9504882097244263
      ],
      "min": [
        -0.9984270334243774,
        -1.0,
        -0.9504832625389099
      ],
      "type": "VEC3"
    },
    {
      "bufferView": 1,
      "byteOffset": 24384,
      "componentType": 5126,
      "count": 228,
      "max": [
        1.2190001010894775,
        1.2209999561309814
      ],
      "min": [
        -0.2189999669790268,
        -0.22099995613098145
      ],
      "type": "VEC2"
    },
    {
      "bufferView": 0,
      "byteOffset": 37212,
      "componentType": 5125,
      "count": 828,
      "type": "SCALAR"
    },
    {
      "bufferView": 2,
      "byteOffset": 78624,
      "componentType": 5126,
      "count": 672,
      "max": [
        0.013299999758601189,
        0.02059524692595005,
        -0.007732335943728685
      ],
      "min": [
        -0.013300000689923763,
        -0.023315925151109695,
        -0.00953937042504549
      ],
      "type": "VEC3"
    },
    {
      "bufferView": 2,
      "byteOffset": 86688,
      "componentType": 5126,
      "count": 672,
      "max": [
        1.0,
        1.0,
        1.0
      ],
      "min": [
        -1.0,
        -1.0,
        -1.0
      ],
      "type": "VEC3"
    },
    {
      "bufferView": 1,
      "byteOffset": 26208,
      "componentType": 5126,
      "count": 672,
      "max": [
        1.656283974647522,
        1.665796160697937
      ],
      "min": [
        -0.656283974647522,
        -0.6657960414886475
      ],
      "type": "VEC2"
    },
    {
      "bufferView": 0,
      "byteOffset": 40524,
      "componentType": 5125,
      "count": 2256,
      "type": "SCALAR"
    },
    {
      "bufferView": 2,
      "byteOffset": 94752,
      "componentType": 5126,
      "count": 2128,
      "max": [
        0.014389834366738796,
        0.0014100000262260437,
        0.000157197006046772
      ],
      "min": [
        -0.014389846473932266,
        -0.0014100000262260437,
        -0.0001571960747241974
      ],
      "type": "VEC3"
    },
    {
      "bufferView": 2,
      "byteOffset": 120288,
      "componentType": 5126,
      "count": 2128,
      "max": [
        0.9054161310195923,
        0.9054040908813477,
        0.90541011095047
      ],
      "min": [
        -0.9054161310195923,
        -0.9054161310195923,
        -0.90541011095047
      ],
      "type": "VEC3"
    },
    {
      "bufferView": 1,
      "byteOffset": 31584,
      "componentType": 5126,
      "count": 2128,
      "max": [
        1.2488555908203125,
        0.5358375310897827
      ],
      "min": [
        0.015326174907386303,
        0.46416282653808594
      ],
      "type": "VEC2"
    },
    {
      "bufferView": 0,
      "byteOffset": 49548,
      "componentType": 5125,
      "count": 10080,
      "type": "SCALAR"
    },
    {
      "bufferView": 2,
      "byteOffset": 145824,
      "componentType": 5126,
      "count": 1520,
      "max": [
        0.01399173028767109,
        0.0008060000836849213,
        0.00010413117706775665
      ],
      "min": [
        -0.013991717249155045,
        -0.0008060000836849213,
        -0.00010413024574518204
      ],
      "type": "VEC3"
    },
    {
      "bufferView": 2,
      "byteOffset": 164064,
      "componentType": 5126,
      "count": 1520,
      "max": [
        0.9054301381111145,
        0.90541011095047,
        0.9054100513458252
      ],
      "min": [
        -0.905430257320404,
        -0.905430257320404,
        -0.905430257320404
      ],
      "type": "VEC3"
    },
    {
      "bufferView": 1,
      "byteOffset": 48608,
      "componentType": 5126,
      "count": 1520,
      "max": [
        1.17440927028656,
        0.5367317795753479
      ],
      "min": [
        0.009022017940878868,
        0.4632682800292969
      ],
      "type": "VEC2"
    },
    {
      "bufferView": 0,
      "byteOffset": 89868,
      "componentType": 5125,
      "count": 7200,
      "type": "SCALAR"
    }
  ],
  "asset": {
    "extras": {
      "author": "propmaker1 (https://sketchfab.com/menX1151)",
      "license": "CC-BY-4.0 (http://creativecommons.org/licenses/by/4.0/)",
      "source": "https://sketchfab.com/3d-models/piano-d64d0e681bed4f4892bcd603f0bd506d",
      "title": "Piano"
    },
    "generator": "Sketchfab-12.68.0",
    "version": "2.0"
  },
  "bufferViews": [
    {
      "buffer": 0,
      "byteLength": 118668,
      "name": "floatBufferViews",
      "target": 34963
    },
    {
      "buffer": 0,
      "byteLength": 60768,
      "byteOffset": 118668,
      "byteStride": 8,
      "name": "floatBufferViews",
      "target": 34962
    },
    {
      "buffer": 0,
      "byteLength": 182304,
      "byteOffset": 179436,
      "byteStride": 12,
      "name": "floatBufferViews",
      "target": 34962
    }
  ],
  "buffers": [
    {
      "byteLength": 361740,
      "uri": "scene.bin"
    }
  ],
  "materials": [
    {
      "doubleSided": true,
      "name": "Piano_Material",
      "pbrMetallicRoughness": {
        "baseColorFactor": [
          0.00392157,
          0.00392157,
          0.00392157,
          1.0
        ],
        "metallicFactor": 0.6766092698320049,
        "roughnessFactor": 0.24434847904468315
      }
    },
    {
      "doubleSided": true,
      "name": "Wood-10",
      "pbrMetallicRoughness": {
        "baseColorFactor": [
          0.054902,
          0.00392157,
          0.0,
          1.0
        ],
        "metallicFactor": 0.0,
        "roughnessFactor": 0.9570742735282748
      }
    },
    {
      "doubleSided": true,
      "name": "Fluegel-02",
      "pbrMetallicRoughness": {
        "baseColorFactor": [
          0.0901961,
          0.0784314,
          0.0392157,
          1.0
        ],
        "metallicFactor": 0.0,
        "roughnessFactor": 0.6927042092026904
      }
    },
    {
      "doubleSided": true,
      "name": "Fluegel-03",
      "pbrMetallicRoughness": {
        "baseColorFactor": [
          1.0,
          0.960784,
          0.878431,
          1.0
        ],
        "metallicFactor": 0.6766092698320049,
        "roughnessFactor": 0.6068719440287296
      }
    },
    {
      "doubleSided": true,
      "name": "Fluegel-04",
      "pbrMetallicRoughness": {
        "baseColorFactor": [
          0.00784314,
          0.00784314,
          0.00784314,
          1.0
        ],
        "metallicFactor": 0.0,
        "roughnessFactor": 0.7267919928444497
      }
    }
  ],
  "meshes": [
    {
      "name": "_1_Piano Material_0",
      "primitives": [
        {
          "attributes": {
            "NORMAL": 1,
            "POSITION": 0,
            "TEXCOORD_0": 2
          },
          "indices": 3,
          "material": 0,
          "mode": 4
        }
      ]
    },
    {
      "name": "_2_Wood-10_0",
      "primitives": [
        {
          "attributes": {
            "NORMAL": 5,
            "POSITION": 4,
            "TEXCOORD_0": 6
          },
          "indices": 7,
          "material": 1,
          "mode": 4
        }
      ]
    },
    {
      "name": "_21_Fluegel-02_0",
      "primitives": [
        {
          "attributes": {
            "NORMAL": 9,
            "POSITION": 8,
            "TEXCOORD_0": 10
          },
          "indices": 11,
          "material": 2,
          "mode": 4
        }
      ]
    },
    {
      "name": "_3_Fluegel-03_0",
      "primitives": [
        {
          "attributes": {
            "NORMAL": 13,
            "POSITION": 12,
            "TEXCOORD_0": 14
          },
          "indices": 15,
          "material": 3,
          "mode": 4
        }
      ]
    },
    {
      "name": "_4_Fluegel-04_0",
      "primitives": [
        {
          "attributes": {
            "NORMAL": 17,
            "POSITION": 16,
            "TEXCOORD_0": 18
          },
          "indices": 19,
          "material": 4,
          "mode": 4
        }
      ]
    }
  ],
  "nodes": [
    {
      "children": [
        1
      ],
      "matrix": [
        1.0,
        0.0,
        0.0,
        0.0,
        0.0,
        2.220446049250313e-16,
        -1.0,
        0.0,
        0.0,
        1.0,
        2.220446049250313e-16,
        0.0,
        0.0,
        0.0,
        0.0,
        1.0
      ],
      "name": "Sketchfab_model"
    },
    {
      "children": [
        2
      ],
      "matrix": [
        1.0,
        0.0,
        0.0,
        0.0,
        0.0,
        0.0,
        1.0,
        0.0,
        0.0,
        -1.0,
        0.0,
        0.0,
        0.0,
        0.0,
        0.0,
        1.0
      ],
      "name": "f9d4bce33d9f48429e4af99732aa220d.fbx"
    },
    {
      "children": [
        3
      ],
      "name": "RootNode"
    },
    {
      "children": [
        4,
        6,
        8,
        10,
        12
      ],
      "matrix": [
        3.4574499130249023,
        0.0,
        0.0,
        0.0,
        0.0,
        7.677080999856983e-16,
        -3.4574499130249023,
        0.0,
        0.0,
        3.4574499130249023,
        7.677080999856983e-16,
        0.0,
        -1.863803481683135e-05,
        -0.028605228289961815,
        0.004756592679768801,
        1.0
      ],
      "name": "Piano"
    },
    {
      "children": [
        5
      ],
      "matrix": [
        571.93701171875,
        0.0,
        0.0,
        0.0,
        0.0,
        571.93701171875,
        -6.310887238664715e-30,
        0.0,
        0.0,
        6.310887238664715e-30,
        571.93701171875,
        0.0,
        -0.06031632423400879,
        5.007407188415527,
        12.761988639831543,
        1.0
      ],
      "name": "_1"
    },
    {
      "mesh": 0,
      "name": "_1_Piano Material_0"
    },
    {
      "children": [
        7
      ],
      "matrix": [
        571.93701171875,
        0.0,
        0.0,
        0.0,
        0.0,
        571.93701171875,
        -6.310887238664715e-30,
        0.0,
        0.0,
        6.310887238664715e-30,
        571.93701171875,
        0.0,
        0.013207443989813328,
        5.639256954193115,
        6.591071605682373,
        1.0
      ],
      "name": "_2"
    },
    {
      "mesh": 1,
      "name": "_2_Wood-10_0"
    },
    {
      "children": [
        9
      ],
      "matrix": [
        571.93701171875,
        0.0,
        0.0,
        0.0,
        0.0,
        571.93701171875,
        -6.310887238664715e-30,
        0.0,
        0.0,
        6.310887238664715e-30,
        571.93701171875,
        0.0,
        0.013207443989813328,
        5.639256954193115,
        6.591071605682373,
        1.0
      ],
      "name": "_21"
    },
    {
      "mesh": 2,
      "name": "_21_Fluegel-02_0"
    },
    {
      "children": [
        11
      ],
      "matrix": [
        571.93701171875,
        0.0,
        0.0,
        0.0,
        0.0,
        571.93701171875,
        -6.310887238664715e-30,
        0.0,
        0.0,
        6.310887238664715e-30,
        571.93701171875,
        0.0,
        0.0131166847422719,
        -8.147140502929688,
        9.649863243103027,
        1.0
      ],
      "name": "_3"
    },
    {
      "mesh": 3,
      "name": "_3_Fluegel-03_0"
    },
    {
      "children": [
        13
      ],
      "matrix": [
        571.93701171875,
        0.0,
        0.0,
        0.0,
        0.0,
        571.93701171875,
        -6.310887238664715e-30,
        0.0,
        0.0,
        6.310887238664715e-30,
        571.93701171875,
        0.0,
        0.013200467452406883,
        -7.803979396820068,
        9.790175437927246,
        1.0
      ],
      "name": "_4"
    },
    {
      "mesh": 4,
      "name": "_4_Fluegel-04_0"
    }
  ],
  "scene": 0,
  "scenes": [
    {
      "name": "Sketchfab_Scene",
      "nodes": [
        0
      ]
    }
  ]
}
